<mxfile host="app.diagrams.net" agent="Mozilla/5.0 (Windows NT 10.0; Win64; x64) AppleWebKit/537.36 (KHTML, like Gecko) Chrome/127.0.0.0 Safari/537.36" version="24.7.7">
  <diagram name="P치gina-1" id="7j7SslgdZAB6V9Ocy2MQ">
    <mxGraphModel dx="1434" dy="772" grid="1" gridSize="10" guides="1" tooltips="1" connect="1" arrows="1" fold="1" page="1" pageScale="1" pageWidth="1169" pageHeight="827" math="0" shadow="0">
      <root>
        <mxCell id="0" />
        <mxCell id="1" parent="0" />
        <mxCell id="nI_CtchdX-k0Scq2BYrx-2" value="acceso a modulo eliminaci칩n de agenda" style="ellipse;whiteSpace=wrap;html=1;" vertex="1" parent="1">
          <mxGeometry x="180" y="260" width="140" height="90" as="geometry" />
        </mxCell>
        <mxCell id="nI_CtchdX-k0Scq2BYrx-3" value="mostrar resumen de la eliminaci칩n de agenda" style="ellipse;whiteSpace=wrap;html=1;" vertex="1" parent="1">
          <mxGeometry x="620" y="270" width="120" height="80" as="geometry" />
        </mxCell>
        <mxCell id="nI_CtchdX-k0Scq2BYrx-4" value="eliminar agenda" style="ellipse;whiteSpace=wrap;html=1;" vertex="1" parent="1">
          <mxGeometry x="410" y="265" width="120" height="80" as="geometry" />
        </mxCell>
        <mxCell id="nI_CtchdX-k0Scq2BYrx-5" value="extend" style="endArrow=classic;html=1;rounded=0;dashed=1;strokeColor=default;align=center;verticalAlign=middle;fontFamily=Helvetica;fontSize=11;fontColor=default;labelBackgroundColor=default;exitX=1;exitY=0.5;exitDx=0;exitDy=0;" edge="1" parent="1" source="nI_CtchdX-k0Scq2BYrx-2" target="nI_CtchdX-k0Scq2BYrx-4">
          <mxGeometry width="50" height="50" relative="1" as="geometry">
            <mxPoint x="670" y="140" as="sourcePoint" />
            <mxPoint x="720" y="90" as="targetPoint" />
          </mxGeometry>
        </mxCell>
        <mxCell id="nI_CtchdX-k0Scq2BYrx-6" value="extend" style="endArrow=classic;html=1;rounded=0;dashed=1;strokeColor=default;align=center;verticalAlign=middle;fontFamily=Helvetica;fontSize=11;fontColor=default;labelBackgroundColor=default;exitX=1;exitY=0.5;exitDx=0;exitDy=0;" edge="1" parent="1" source="nI_CtchdX-k0Scq2BYrx-4" target="nI_CtchdX-k0Scq2BYrx-3">
          <mxGeometry width="50" height="50" relative="1" as="geometry">
            <mxPoint x="680" y="150" as="sourcePoint" />
            <mxPoint x="730" y="100" as="targetPoint" />
          </mxGeometry>
        </mxCell>
        <mxCell id="nI_CtchdX-k0Scq2BYrx-7" value="cliente" style="shape=umlActor;verticalLabelPosition=bottom;verticalAlign=top;html=1;outlineConnect=0;" vertex="1" parent="1">
          <mxGeometry x="90" y="270" width="30" height="60" as="geometry" />
        </mxCell>
        <mxCell id="nI_CtchdX-k0Scq2BYrx-8" value="validar agenda creada" style="ellipse;whiteSpace=wrap;html=1;" vertex="1" parent="1">
          <mxGeometry x="290" y="130" width="160" height="60" as="geometry" />
        </mxCell>
        <mxCell id="nI_CtchdX-k0Scq2BYrx-9" value="&#xa;&lt;span style=&quot;color: rgb(0, 0, 0); font-family: Helvetica; font-size: 12px; font-style: normal; font-variant-ligatures: normal; font-variant-caps: normal; font-weight: 400; letter-spacing: normal; orphans: 2; text-align: center; text-indent: 0px; text-transform: none; widows: 2; word-spacing: 0px; -webkit-text-stroke-width: 0px; white-space: normal; background-color: rgb(251, 251, 251); text-decoration-thickness: initial; text-decoration-style: initial; text-decoration-color: initial; display: inline !important; float: none;&quot;&gt;guardar reserva en el sistema&lt;/span&gt;&#xa;&#xa;" style="ellipse;whiteSpace=wrap;html=1;" vertex="1" parent="1">
          <mxGeometry x="820" y="265" width="130" height="80" as="geometry" />
        </mxCell>
        <mxCell id="nI_CtchdX-k0Scq2BYrx-10" value="enviar notificaci칩n al email" style="ellipse;whiteSpace=wrap;html=1;" vertex="1" parent="1">
          <mxGeometry x="500" y="130" width="120" height="80" as="geometry" />
        </mxCell>
        <mxCell id="nI_CtchdX-k0Scq2BYrx-11" value="include" style="endArrow=classic;html=1;rounded=0;dashed=1;strokeColor=default;align=center;verticalAlign=middle;fontFamily=Helvetica;fontSize=11;fontColor=default;labelBackgroundColor=default;entryX=0.617;entryY=0.988;entryDx=0;entryDy=0;entryPerimeter=0;" edge="1" parent="1" target="nI_CtchdX-k0Scq2BYrx-10" source="nI_CtchdX-k0Scq2BYrx-3">
          <mxGeometry width="50" height="50" relative="1" as="geometry">
            <mxPoint x="547" y="234" as="sourcePoint" />
            <mxPoint x="677" y="230" as="targetPoint" />
          </mxGeometry>
        </mxCell>
        <mxCell id="nI_CtchdX-k0Scq2BYrx-12" value="include" style="endArrow=classic;html=1;rounded=0;dashed=1;strokeColor=default;align=center;verticalAlign=middle;fontFamily=Helvetica;fontSize=11;fontColor=default;labelBackgroundColor=default;entryX=0;entryY=0.5;entryDx=0;entryDy=0;exitX=0.5;exitY=0;exitDx=0;exitDy=0;" edge="1" parent="1" target="nI_CtchdX-k0Scq2BYrx-8" source="nI_CtchdX-k0Scq2BYrx-2">
          <mxGeometry width="50" height="50" relative="1" as="geometry">
            <mxPoint x="180" y="230" as="sourcePoint" />
            <mxPoint x="237" y="190" as="targetPoint" />
          </mxGeometry>
        </mxCell>
        <mxCell id="nI_CtchdX-k0Scq2BYrx-15" value="include" style="endArrow=classic;html=1;rounded=0;dashed=1;strokeColor=default;align=center;verticalAlign=middle;fontFamily=Helvetica;fontSize=11;fontColor=default;labelBackgroundColor=default;entryX=0;entryY=0.5;entryDx=0;entryDy=0;exitX=1;exitY=0.4;exitDx=0;exitDy=0;exitPerimeter=0;" edge="1" parent="1" source="nI_CtchdX-k0Scq2BYrx-3" target="nI_CtchdX-k0Scq2BYrx-9">
          <mxGeometry width="50" height="50" relative="1" as="geometry">
            <mxPoint x="762" y="298" as="sourcePoint" />
            <mxPoint x="690" y="230" as="targetPoint" />
          </mxGeometry>
        </mxCell>
        <mxCell id="nI_CtchdX-k0Scq2BYrx-16" value="sistema" style="shape=umlActor;verticalLabelPosition=bottom;verticalAlign=top;html=1;outlineConnect=0;" vertex="1" parent="1">
          <mxGeometry x="1010" y="270" width="30" height="60" as="geometry" />
        </mxCell>
        <mxCell id="nI_CtchdX-k0Scq2BYrx-17" value="" style="endArrow=none;html=1;rounded=0;" edge="1" parent="1" source="nI_CtchdX-k0Scq2BYrx-7" target="nI_CtchdX-k0Scq2BYrx-2">
          <mxGeometry width="50" height="50" relative="1" as="geometry">
            <mxPoint x="560" y="420" as="sourcePoint" />
            <mxPoint x="610" y="370" as="targetPoint" />
          </mxGeometry>
        </mxCell>
        <mxCell id="nI_CtchdX-k0Scq2BYrx-19" value="" style="endArrow=none;html=1;rounded=0;" edge="1" parent="1">
          <mxGeometry width="50" height="50" relative="1" as="geometry">
            <mxPoint x="950" y="299" as="sourcePoint" />
            <mxPoint x="1010" y="301" as="targetPoint" />
          </mxGeometry>
        </mxCell>
      </root>
    </mxGraphModel>
  </diagram>
</mxfile>
